<svg width="18" height="16" viewBox="0 0 18 16" fill="none" xmlns="http://www.w3.org/2000/svg">
<path d="M5.97828 15.942C6.712 15.942 7.30679 15.3473 7.30679 14.6135C7.30679 13.8798 6.712 13.285 5.97828 13.285C5.24457 13.285 4.64978 13.8798 4.64978 14.6135C4.64978 15.3473 5.24457 15.942 5.97828 15.942Z" fill="#FFFBFB"/>
<path d="M15.2778 15.942C16.0115 15.942 16.6063 15.3473 16.6063 14.6135C16.6063 13.8798 16.0115 13.285 15.2778 13.285C14.5441 13.285 13.9493 13.8798 13.9493 14.6135C13.9493 15.3473 14.5441 15.942 15.2778 15.942Z" fill="#FFFBFB"/>
<path d="M17.6359 2.35726C17.5426 2.24312 17.425 2.15118 17.2917 2.08813C17.1584 2.02508 17.0128 1.9925 16.8654 1.99276H4.23004L3.97555 0.548838C3.94841 0.395034 3.86795 0.25571 3.74829 0.155338C3.62864 0.0549669 3.47744 -3.28147e-05 3.32126 1.46884e-08H0.664252C0.488081 1.46884e-08 0.319126 0.0699836 0.194555 0.194555C0.0699834 0.319126 0 0.488081 0 0.664252C0 0.840422 0.0699834 1.00938 0.194555 1.13395C0.319126 1.25852 0.488081 1.3285 0.664252 1.3285H2.76412L4.65973 12.0719C4.68686 12.2257 4.76733 12.3651 4.88698 12.4654C5.00664 12.5658 5.15783 12.6208 5.31401 12.6208H15.942C16.1182 12.6208 16.2872 12.5508 16.4117 12.4262C16.5363 12.3017 16.6063 12.1327 16.6063 11.9565C16.6063 11.7804 16.5363 11.6114 16.4117 11.4868C16.2872 11.3623 16.1182 11.2923 15.942 11.2923H5.87116L5.63701 9.96378H15.6697C15.9001 9.96348 16.1232 9.88361 16.3015 9.73768C16.4797 9.59174 16.6021 9.38871 16.6478 9.16294L17.8435 3.18467C17.8723 3.03999 17.8686 2.89072 17.8327 2.74763C17.7968 2.60454 17.7296 2.47121 17.6359 2.35726Z" fill="#FFFBFB"/>
</svg>
