<svg width="18" height="16" viewBox="0 0 18 16" fill="none" xmlns="http://www.w3.org/2000/svg">
<path fill-rule="evenodd" clip-rule="evenodd" d="M17.0904 8.45724C17.0904 4.31808 13.4203 0.961914 8.89397 0.961914C4.36766 0.961914 0.697571 4.31808 0.697571 8.45724C0.697571 12.1982 3.69438 15.2991 7.61329 15.8619V10.6245H5.53162V8.45724H7.61329V6.80593C7.61329 4.92775 8.83726 3.88944 10.7093 3.88944C11.6061 3.88944 12.5443 4.036 12.5443 4.036V5.88072H11.5102C10.4926 5.88072 10.1743 6.45827 10.1743 7.05187V8.45724H12.4473L12.0844 10.6245H10.1747V15.8626C14.0936 15.3001 17.0904 12.1992 17.0904 8.45724V8.45724Z" fill="black"/>
</svg>
