<svg width="17" height="16" viewBox="0 0 17 16" fill="none" xmlns="http://www.w3.org/2000/svg">
<path d="M11.4762 2.17798C12.3573 2.18038 13.2015 2.50151 13.8245 3.07122C14.4475 3.64093 14.7987 4.41293 14.8013 5.21862V11.2993C14.7987 12.105 14.4475 12.877 13.8245 13.4467C13.2015 14.0164 12.3573 14.3375 11.4762 14.3399H4.82685C3.9458 14.3375 3.10159 14.0164 2.47859 13.4467C1.8556 12.877 1.50443 12.105 1.5018 11.2993V5.21862C1.50443 4.41293 1.8556 3.64093 2.47859 3.07122C3.10159 2.50151 3.9458 2.18038 4.82685 2.17798H11.4762ZM11.4762 0.961914H4.82685C2.26663 0.961914 0.171997 2.87738 0.171997 5.21862V11.2993C0.171997 13.6405 2.26663 15.556 4.82685 15.556H11.4762C14.0365 15.556 16.1311 13.6405 16.1311 11.2993V5.21862C16.1311 2.87738 14.0365 0.961914 11.4762 0.961914V0.961914Z" fill="black"/>
<path d="M12.4737 5.21855C12.2764 5.21855 12.0836 5.16505 11.9196 5.06483C11.7555 4.9646 11.6277 4.82215 11.5522 4.65548C11.4767 4.48881 11.4569 4.30541 11.4954 4.12847C11.5339 3.95153 11.6289 3.78901 11.7684 3.66144C11.9079 3.53388 12.0856 3.44701 12.2791 3.41181C12.4726 3.37662 12.6731 3.39468 12.8554 3.46372C13.0377 3.53276 13.1934 3.64967 13.303 3.79967C13.4126 3.94966 13.4711 4.12602 13.4711 4.30642C13.4714 4.42627 13.4458 4.545 13.3958 4.65578C13.3458 4.76656 13.2723 4.86722 13.1796 4.95197C13.087 5.03672 12.9769 5.10389 12.8557 5.14964C12.7346 5.19539 12.6048 5.21881 12.4737 5.21855V5.21855Z" fill="black"/>
<path d="M8.15158 5.82641C8.67767 5.82641 9.19195 5.96907 9.62938 6.23635C10.0668 6.50363 10.4077 6.88353 10.6091 7.328C10.8104 7.77247 10.8631 8.26155 10.7604 8.7334C10.6578 9.20525 10.4045 9.63867 10.0325 9.97885C9.66046 10.319 9.1865 10.5507 8.67052 10.6446C8.15453 10.7384 7.6197 10.6902 7.13366 10.5061C6.64761 10.322 6.23218 10.0103 5.9399 9.61025C5.64762 9.21024 5.49161 8.73995 5.49161 8.25886C5.49237 7.61394 5.77285 6.99564 6.27153 6.53962C6.77021 6.0836 7.44635 5.8271 8.15158 5.82641M8.15158 4.61035C7.36248 4.61035 6.5911 4.82433 5.93498 5.22524C5.27887 5.62614 4.76749 6.19596 4.46551 6.86263C4.16353 7.52931 4.08452 8.2629 4.23847 8.97065C4.39241 9.67839 4.7724 10.3285 5.33038 10.8387C5.88836 11.349 6.59927 11.6965 7.37322 11.8373C8.14716 11.978 8.94937 11.9058 9.6784 11.6296C10.4074 11.3535 11.0306 10.8859 11.469 10.2859C11.9074 9.68586 12.1414 8.98046 12.1414 8.25886C12.1414 7.29121 11.721 6.3632 10.9728 5.67897C10.2246 4.99475 9.20974 4.61035 8.15158 4.61035V4.61035Z" fill="black"/>
</svg>
