<svg width="18" height="22" viewBox="0 0 18 22" fill="none" xmlns="http://www.w3.org/2000/svg">
<path d="M8.61576 1C4.41123 1 1 3.96575 1 7.61846C1 11.8214 6.07718 18.4819 7.94145 20.7824C8.01884 20.8796 8.12026 20.9586 8.23745 21.0131C8.35464 21.0675 8.48427 21.0959 8.61576 21.0959C8.74726 21.0959 8.87689 21.0675 8.99408 21.0131C9.11127 20.9586 9.21269 20.8796 9.29008 20.7824C11.1544 18.4829 16.2315 11.8248 16.2315 7.61846C16.2315 3.96575 12.8203 1 8.61576 1Z" stroke="#B80000" stroke-width="1.54592" stroke-linecap="round" stroke-linejoin="round"/>
<path d="M8.61574 10.2756C10.0178 10.2756 11.1543 9.23738 11.1543 7.9567C11.1543 6.67601 10.0178 5.63782 8.61574 5.63782C7.21371 5.63782 6.07715 6.67601 6.07715 7.9567C6.07715 9.23738 7.21371 10.2756 8.61574 10.2756Z" stroke="#B80000" stroke-width="1.54592" stroke-linecap="round" stroke-linejoin="round"/>
</svg>
