<svg width="32" height="22" viewBox="0 0 32 22" fill="none" xmlns="http://www.w3.org/2000/svg">
<path d="M8.22772 2.50369H29.2277" stroke="#D5D5D5" stroke-width="3.6409" stroke-linecap="round" stroke-linejoin="round"/>
<path d="M8.22772 10.8103H29.2277" stroke="#D5D5D5" stroke-width="3.6409" stroke-linecap="round" stroke-linejoin="round"/>
<path d="M8.22772 19.117H29.2277" stroke="#D5D5D5" stroke-width="3.6409" stroke-linecap="round" stroke-linejoin="round"/>
<path d="M2.39439 3.69035C3.03872 3.69035 3.56106 3.15906 3.56106 2.50368C3.56106 1.84831 3.03872 1.31702 2.39439 1.31702C1.75006 1.31702 1.22772 1.84831 1.22772 2.50368C1.22772 3.15906 1.75006 3.69035 2.39439 3.69035Z" stroke="#D5D5D5" stroke-width="2.42727" stroke-linecap="round" stroke-linejoin="round"/>
<path d="M2.39439 11.997C3.03872 11.997 3.56106 11.4657 3.56106 10.8103C3.56106 10.1549 3.03872 9.62366 2.39439 9.62366C1.75006 9.62366 1.22772 10.1549 1.22772 10.8103C1.22772 11.4657 1.75006 11.997 2.39439 11.997Z" stroke="#D5D5D5" stroke-width="2.42727" stroke-linecap="round" stroke-linejoin="round"/>
<path d="M2.39439 20.3037C3.03872 20.3037 3.56106 19.7724 3.56106 19.117C3.56106 18.4616 3.03872 17.9304 2.39439 17.9304C1.75006 17.9304 1.22772 18.4616 1.22772 19.117C1.22772 19.7724 1.75006 20.3037 2.39439 20.3037Z" stroke="#D5D5D5" stroke-width="2.42727" stroke-linecap="round" stroke-linejoin="round"/>
</svg>
