<svg width="32" height="25" viewBox="0 0 32 25" fill="none" xmlns="http://www.w3.org/2000/svg">
<path d="M9 2.98105H30" stroke="#323232" stroke-width="3.98587" stroke-linecap="round" stroke-linejoin="round"/>
<path d="M9 12.4332H30" stroke="#323232" stroke-width="3.98587" stroke-linecap="round" stroke-linejoin="round"/>
<path d="M9 21.8854H30" stroke="#323232" stroke-width="3.98587" stroke-linecap="round" stroke-linejoin="round"/>
<path d="M3.16667 4.33136C3.811 4.33136 4.33333 3.72681 4.33333 2.98105C4.33333 2.23529 3.811 1.63074 3.16667 1.63074C2.52233 1.63074 2 2.23529 2 2.98105C2 3.72681 2.52233 4.33136 3.16667 4.33136Z" stroke="#323232" stroke-width="2.65725" stroke-linecap="round" stroke-linejoin="round"/>
<path d="M3.16667 13.7835C3.811 13.7835 4.33333 13.179 4.33333 12.4332C4.33333 11.6875 3.811 11.0829 3.16667 11.0829C2.52233 11.0829 2 11.6875 2 12.4332C2 13.179 2.52233 13.7835 3.16667 13.7835Z" stroke="#323232" stroke-width="2.65725" stroke-linecap="round" stroke-linejoin="round"/>
<path d="M3.16667 23.2358C3.811 23.2358 4.33333 22.6312 4.33333 21.8854C4.33333 21.1397 3.811 20.5351 3.16667 20.5351C2.52233 20.5351 2 21.1397 2 21.8854C2 22.6312 2.52233 23.2358 3.16667 23.2358Z" stroke="#323232" stroke-width="2.65725" stroke-linecap="round" stroke-linejoin="round"/>
</svg>
