<svg width="18" height="27" viewBox="0 0 18 27" fill="none" xmlns="http://www.w3.org/2000/svg">
<path d="M11.4562 19.9785V18.6845C11.4562 17.1209 13.1739 15.642 14.2881 14.5869C15.8587 13.1004 16.6843 11.1034 16.6843 8.76394C16.6843 4.45065 13.2136 1.00003 8.84216 1.00003C7.81151 0.997184 6.79046 1.19606 5.83771 1.58523C4.88496 1.97439 4.01931 2.54617 3.29053 3.26768C2.56174 3.98919 1.98421 4.84621 1.59112 5.78945C1.19804 6.7327 0.997156 7.74357 1.00003 8.76394C1.00003 11.0198 1.86103 13.1522 3.39624 14.5869C4.50448 15.6226 6.22812 17.1047 6.22812 18.6845V19.9785" stroke="#DFFF1B" stroke-width="1.72531" stroke-linecap="round" stroke-linejoin="round"/>
<path d="M7.09943 25.1544H10.5848" stroke="#DFFF1B" stroke-width="1.72531" stroke-linecap="round" stroke-linejoin="round"/>
<path d="M6.22815 22.5664H11.4562" stroke="#DFFF1B" stroke-width="1.72531" stroke-linecap="round" stroke-linejoin="round"/>
<path d="M8.84219 19.9785V13.0772" stroke="#DFFF1B" stroke-width="1.72531" stroke-linecap="round" stroke-linejoin="round"/>
<path d="M10.9116 12.2146C10.9116 12.2146 9.74022 13.0773 8.84219 13.0773C7.94415 13.0773 6.77274 12.2146 6.77274 12.2146" stroke="#DFFF1B" stroke-width="1.72531" stroke-linecap="round" stroke-linejoin="round"/>
</svg>
