<svg width="13" height="13" viewBox="0 0 13 13" fill="none" xmlns="http://www.w3.org/2000/svg">
<path d="M10.2883 12.491C9.73812 12.491 8.96523 12.309 7.80788 11.7177C6.40051 10.996 5.31193 10.3297 3.91217 9.05298C2.56258 7.8196 1.90582 7.02107 0.986649 5.49152C-0.0517562 3.76454 0.125258 2.85929 0.32313 2.47239C0.558772 2.00997 0.906598 1.7334 1.35618 1.45888C1.61154 1.30589 1.88177 1.17473 2.16345 1.06709C2.19164 1.05601 2.21785 1.04544 2.24125 1.0359C2.38077 0.97842 2.59217 0.891555 2.85995 0.984348C3.03866 1.04569 3.19819 1.17122 3.44793 1.39676C3.96009 1.85867 4.65997 2.88738 4.91816 3.39259C5.09151 3.73309 5.20623 3.95786 5.20651 4.20995C5.20651 4.50508 5.04415 4.73268 4.84713 4.97833C4.8102 5.02446 4.77356 5.06854 4.73804 5.11133C4.52354 5.36909 4.47647 5.44358 4.50747 5.57658C4.57033 5.84388 5.03908 6.63958 5.80943 7.34249C6.57978 8.0454 7.42482 8.44699 7.71824 8.50421C7.86989 8.53385 7.95304 8.489 8.24393 8.28589C8.28565 8.25676 8.32849 8.22661 8.37331 8.19645C8.67378 7.99205 8.91111 7.84744 9.22624 7.84744H9.22793C9.50219 7.84744 9.73699 7.95622 10.126 8.13562C10.6333 8.36966 11.7921 9.00143 12.3003 9.47029C12.5475 9.69815 12.6853 9.84353 12.7527 10.0067C12.8542 10.2523 12.7586 10.4449 12.6963 10.5738C12.6859 10.5952 12.6743 10.6186 12.6622 10.6446C12.5436 10.9018 12.3993 11.1484 12.2312 11.3813C11.9316 11.7912 11.628 12.1085 11.1212 12.3242C10.861 12.4368 10.5762 12.4938 10.2883 12.491V12.491Z" fill="#FFFBFB"/>
</svg>
