<svg width="22" height="16" viewBox="0 0 22 16" fill="none" xmlns="http://www.w3.org/2000/svg">
<path d="M21.0928 2.71722C20.3332 3.01904 19.5295 3.21788 18.7071 3.30747C19.5714 2.84468 20.2214 2.10945 20.5351 1.23968C19.718 1.67662 18.8255 1.98319 17.8959 2.14627C17.5045 1.77111 17.0337 1.47266 16.5122 1.26906C15.9906 1.06546 15.4293 0.960962 14.8623 0.961921C12.5665 0.961921 10.7086 2.63621 10.7086 4.70014C10.707 4.98722 10.7429 5.27345 10.8157 5.55272C9.16949 5.48214 7.55747 5.0981 6.08282 4.42518C4.60817 3.75225 3.30336 2.80524 2.25187 1.64475C1.88298 2.21344 1.68789 2.8623 1.68699 3.52351C1.68699 4.81973 2.42652 5.9655 3.5432 6.63676C2.8816 6.6224 2.23356 6.46227 1.65409 6.16997V6.21626C1.65409 8.02943 3.08843 9.53784 4.98682 9.88118C4.62983 9.96821 4.26196 10.0123 3.8925 10.0123C3.63035 10.0128 3.36879 9.9895 3.11163 9.9429C3.63938 11.4282 5.1754 12.5084 6.9949 12.5392C5.51642 13.5812 3.70124 14.1443 1.83465 14.1402C1.50332 14.1398 1.1723 14.1217 0.843262 14.0862C2.74215 15.195 4.94946 15.7815 7.20246 15.7759C14.8534 15.7759 19.0333 10.0779 19.0333 5.13607C19.0333 4.97404 19.0286 4.81202 19.0202 4.65385C19.8315 4.12612 20.5333 3.47031 21.0928 2.71722V2.71722Z" fill="black"/>
</svg>
